<?xml version="1.0" standalone="no"?>
<!DOCTYPE svg PUBLIC "-//W3C//DTD SVG 20010904//EN"
 "http://www.w3.org/TR/2001/REC-SVG-20010904/DTD/svg10.dtd">
<svg version="1.0" xmlns="http://www.w3.org/2000/svg"
 width="200.000000pt" height="200.000000pt" viewBox="0 0 200.000000 200.000000"
 preserveAspectRatio="xMidYMid meet">

<g transform="translate(0.000000,200.000000) scale(0.100000,-0.100000)"
fill="#000000" stroke="none">
<path d="M1435 1894 c-11 -2 -101 -13 -200 -24 -240 -28 -338 -45 -431 -76
-196 -64 -336 -162 -454 -318 -25 -33 -47 -53 -55 -50 -7 3 -22 1 -33 -5 -34
-18 -66 -213 -66 -406 -1 -137 3 -172 22 -245 41 -151 117 -291 232 -429 28
-33 50 -62 50 -65 0 -3 -22 -17 -49 -32 -48 -27 -49 -29 -36 -54 13 -25 52
-50 78 -50 7 0 39 18 71 39 l59 40 62 -24 c137 -51 230 -68 355 -62 143 6 220
29 321 96 95 63 129 95 231 212 46 53 118 134 161 181 42 47 77 90 77 95 0 5
-6 17 -13 27 -13 18 -15 18 -40 1 -15 -9 -27 -15 -27 -13 0 2 11 62 25 132 28
141 30 197 14 312 -23 164 -97 358 -188 492 -22 33 -58 98 -80 146 -22 48 -45
85 -53 85 -7 -1 -22 -3 -33 -5z m-215 -151 c41 -10 80 -22 85 -29 18 -20 42
-23 64 -7 21 14 22 14 16 -10 -5 -17 -2 -26 10 -31 9 -3 21 -4 25 -1 15 9 133
-88 192 -159 66 -78 92 -139 119 -279 30 -155 23 -331 -19 -465 -15 -50 -21
-56 -84 -94 -38 -22 -70 -39 -72 -37 -2 2 16 46 40 97 54 115 55 122 22 141
-26 15 -26 15 -168 -118 l-141 -134 21 54 c12 30 35 85 51 124 16 38 29 73 29
77 0 4 -12 14 -27 21 -25 14 -31 12 -92 -21 l-66 -36 138 133 c80 78 137 141
137 152 0 25 -43 42 -165 64 -55 9 -102 19 -103 20 -2 2 26 77 62 167 79 198
86 221 60 216 -12 -2 -50 -68 -120 -208 -56 -113 -99 -208 -95 -211 3 -4 60
-17 126 -29 66 -13 126 -26 134 -30 20 -11 -382 -375 -467 -422 -37 -21 -70
-38 -74 -38 -22 0 0 65 76 226 46 99 81 182 77 186 -3 3 -64 18 -134 31 -71
14 -131 27 -133 30 -3 2 87 90 198 195 112 104 219 206 237 226 l35 36 -27 0
c-28 0 -176 -118 -337 -267 -41 -38 -90 -83 -109 -99 -18 -16 -53 -53 -77 -83
-34 -41 -42 -57 -34 -67 11 -13 143 -47 233 -59 26 -4 47 -12 47 -19 0 -6 -13
-38 -29 -71 l-29 -60 -1 42 c-1 40 -3 42 -37 49 -33 6 -142 -19 -227 -52 -23
-8 -22 12 7 171 l24 130 -21 23 c-11 12 -25 22 -31 22 -6 0 -54 -31 -106 -69
l-95 -69 -12 47 c-14 60 -16 148 -2 156 6 4 8 14 5 22 -3 8 -1 11 4 8 6 -3 10
-1 10 4 0 21 3 26 29 50 14 13 19 20 11 15 -13 -7 -13 -6 0 12 8 10 25 27 38
37 12 10 22 23 22 28 0 25 151 154 230 195 150 78 356 105 520 67z m-929 -569
c12 -82 25 -153 29 -157 4 -4 56 28 116 71 82 60 110 76 112 63 1 -9 -13 -96
-31 -193 -23 -123 -30 -178 -22 -178 6 0 67 23 135 50 68 28 130 50 138 50 12
0 14 -30 11 -182 -2 -146 0 -182 10 -180 7 1 128 70 268 153 140 83 257 148
260 146 2 -3 -21 -85 -51 -183 -31 -97 -54 -179 -51 -182 3 -4 87 75 186 173
l180 180 -26 -67 c-14 -38 -36 -98 -50 -135 -14 -36 -24 -67 -22 -69 2 -2 54
26 117 62 63 36 124 70 135 76 24 14 -5 -27 -107 -149 -141 -168 -252 -256
-395 -316 -73 -30 -85 -32 -198 -31 -103 0 -141 5 -268 37 -179 44 -222 62
-264 110 -56 64 -134 187 -179 282 -65 137 -87 241 -88 410 -1 120 19 324 30
312 2 -2 13 -70 25 -153z m234 -979 c-22 -16 -56 -16 -62 0 -2 6 9 18 24 27
24 15 30 15 43 3 12 -13 12 -17 -5 -30z"/>
</g>
</svg>
