<?xml version="1.0" standalone="no"?>
<!DOCTYPE svg PUBLIC "-//W3C//DTD SVG 20010904//EN"
 "http://www.w3.org/TR/2001/REC-SVG-20010904/DTD/svg10.dtd">
<svg version="1.0" xmlns="http://www.w3.org/2000/svg"
 width="512.000000pt" height="512.000000pt" viewBox="0 0 512.000000 512.000000"
 preserveAspectRatio="xMidYMid meet">

<g transform="translate(0.000000,512.000000) scale(0.100000,-0.100000)"
fill="#000000" stroke="none">
<path d="M1200 5060 c-133 -5 -150 -7 -202 -33 -65 -32 -115 -84 -155 -159
l-28 -53 0 -2135 0 -2135 26 -55 c33 -69 97 -133 169 -167 48 -24 70 -27 183
-31 l127 -4 0 -98 c0 -76 4 -102 16 -114 13 -14 47 -16 218 -16 248 0 236 -7
236 133 l0 97 770 0 770 0 0 -98 c0 -139 -12 -132 238 -132 169 0 203 2 216
16 12 12 16 38 16 114 l0 98 128 4 c113 4 133 7 184 31 71 35 130 93 165 165
l28 57 0 2130 0 2130 -33 67 c-39 80 -102 139 -179 168 -53 20 -73 20 -1401
23 -741 1 -1412 0 -1492 -3z m92 -1342 l3 -1233 29 -53 c32 -57 81 -102 143
-130 35 -16 113 -17 1093 -17 980 0 1058 1 1093 17 62 28 111 73 143 130 l29
53 3 1233 2 1232 93 0 c82 0 100 -3 148 -27 60 -31 105 -86 119 -149 6 -22 10
-683 10 -1561 l0 -1523 -181 0 c-105 0 -188 -4 -200 -10 -22 -13 -27 -71 -6
-89 9 -6 83 -12 198 -13 l184 -3 0 -85 0 -85 -185 -5 c-102 -3 -191 -9 -197
-13 -7 -5 -13 -23 -13 -42 0 -19 6 -37 13 -42 6 -4 95 -10 197 -13 l185 -5 0
-85 0 -85 -184 -3 c-115 -1 -189 -7 -198 -13 -21 -18 -16 -76 6 -89 12 -6 95
-10 200 -10 l181 0 0 -185 c0 -101 -5 -206 -11 -233 -12 -59 -63 -124 -120
-152 -37 -20 -67 -20 -1509 -20 -1442 0 -1472 0 -1509 20 -57 28 -108 93 -120
152 -6 27 -11 132 -11 233 l0 185 184 0 c154 0 187 3 200 16 19 19 21 67 3 83
-9 6 -83 12 -198 13 l-184 3 0 85 0 85 185 5 c102 3 191 9 198 13 16 11 16 73
0 84 -7 4 -96 10 -198 13 l-185 5 0 85 0 85 184 3 c115 1 189 7 198 13 18 16
16 64 -3 83 -13 13 -46 16 -200 16 l-184 0 2 1548 3 1547 22 40 c48 90 117
124 250 125 l93 0 2 -1232z m2426 15 l-3 -1218 -22 -35 c-12 -20 -40 -46 -61
-58 l-40 -22 -1031 0 c-1007 0 -1033 0 -1070 20 -22 11 -50 36 -62 57 l-24 38
-3 1218 -2 1217 1160 0 1160 0 -2 -1217z m-2040 -3500 l-3 -58 -122 -3 -123
-3 0 61 0 60 125 0 126 0 -3 -57z m2012 -3 l0 -61 -122 3 -123 3 -3 58 -3 57
126 0 125 0 0 -60z"/>
<path d="M2774 1937 c-39 -23 -563 -508 -569 -527 -10 -32 11 -56 105 -115 49
-32 90 -64 90 -71 0 -7 -29 -105 -65 -217 -36 -112 -65 -209 -65 -216 0 -18
38 -51 59 -51 23 0 576 499 585 528 11 34 -4 51 -93 104 -47 28 -87 52 -89 53
-2 2 27 105 63 231 36 126 65 234 65 241 0 17 -36 53 -52 53 -7 -1 -22 -6 -34
-13z m-124 -373 c-22 -76 -39 -152 -38 -169 3 -25 14 -36 73 -73 39 -23 70
-46 70 -50 0 -9 -297 -283 -302 -279 -1 2 16 60 38 131 22 71 38 138 35 150
-3 13 -39 42 -90 75 l-85 54 67 61 c36 34 112 102 167 153 55 50 101 90 102
89 2 -1 -15 -65 -37 -142z"/>
<path d="M1637 4702 c-15 -17 -17 -57 -17 -364 0 -321 1 -346 18 -361 17 -16
96 -17 924 -17 864 0 906 1 921 18 15 17 17 57 17 364 0 321 -1 346 -18 361
-17 16 -96 17 -924 17 -864 0 -906 -1 -921 -18z m1751 -364 l2 -268 -830 0
-830 0 0 263 c0 145 3 267 7 270 3 4 376 6 827 5 l821 -3 3 -267z"/>
<path d="M1637 3702 c-14 -16 -17 -43 -17 -175 0 -150 1 -156 22 -171 19 -13
59 -16 240 -16 279 0 258 -16 258 193 0 136 -2 156 -18 170 -16 15 -48 17
-244 17 -205 0 -226 -2 -241 -18z m388 -172 l0 -75 -145 0 -145 0 -3 78 -3 78
148 -3 148 -3 0 -75z"/>
<path d="M2317 3702 c-14 -16 -17 -43 -17 -170 0 -207 -21 -192 260 -192 281
0 260 -16 260 193 0 136 -2 156 -18 170 -16 15 -48 17 -244 17 -205 0 -226 -2
-241 -18z m388 -172 l0 -75 -145 0 -145 0 -3 64 c-2 35 -1 70 2 78 5 11 34 13
148 11 l143 -3 0 -75z"/>
<path d="M2997 3702 c-14 -16 -17 -43 -17 -170 0 -207 -21 -192 258 -192 181
0 221 3 240 16 21 15 22 21 22 173 0 140 -2 160 -18 174 -16 15 -48 17 -244
17 -205 0 -226 -2 -241 -18z m391 -169 l-3 -78 -145 0 -145 0 -3 64 c-2 35 -1
70 2 77 4 11 38 14 151 14 l146 0 -3 -77z"/>
<path d="M2157 3096 c-65 -18 -116 -61 -150 -127 -25 -47 -28 -62 -24 -117 9
-125 98 -212 223 -220 54 -4 72 0 119 23 201 98 164 397 -56 444 -59 13 -51
13 -112 -3z m122 -120 c85 -44 83 -179 -3 -220 -19 -9 -44 -16 -56 -16 -34 0
-87 29 -106 58 -20 31 -23 97 -5 130 29 54 112 77 170 48z"/>
<path d="M2838 3096 c-61 -17 -111 -56 -145 -114 -24 -39 -28 -58 -28 -118 0
-61 4 -77 30 -120 106 -170 364 -144 431 43 63 179 -105 359 -288 309z m129
-126 c40 -24 56 -54 56 -105 0 -50 -24 -88 -68 -109 -42 -20 -68 -20 -111 0
-85 41 -88 174 -5 219 37 20 91 18 128 -5z"/>
</g>
</svg>
