<?xml version="1.0" standalone="no"?>
<!DOCTYPE svg PUBLIC "-//W3C//DTD SVG 20010904//EN"
 "http://www.w3.org/TR/2001/REC-SVG-20010904/DTD/svg10.dtd">
<svg version="1.0" xmlns="http://www.w3.org/2000/svg"
 width="512.000000pt" height="512.000000pt" viewBox="0 0 512.000000 512.000000"
 preserveAspectRatio="xMidYMid meet">

<g transform="translate(0.000000,512.000000) scale(0.100000,-0.100000)"
fill="#000000" stroke="none">
<path d="M1660 5104 c-97 -42 -130 -115 -130 -291 l0 -113 -287 0 -288 0 -60
-29 c-75 -35 -147 -112 -172 -184 -17 -50 -18 -146 -18 -2142 l0 -2090 26 -56
c36 -76 90 -133 157 -166 l57 -28 1150 0 1150 0 57 27 c66 31 128 91 160 156
22 45 23 58 26 328 l3 282 217 143 c186 123 233 159 328 254 250 250 372 540
377 899 2 119 0 136 -17 155 -13 14 -31 21 -57 21 -52 0 -69 -26 -69 -110 -2
-351 -113 -634 -339 -861 -69 -69 -140 -122 -366 -273 -190 -126 -289 -186
-307 -186 -18 0 -115 59 -299 181 -206 137 -294 202 -362 268 -186 180 -303
412 -337 671 -5 41 -10 233 -10 427 0 351 0 352 23 376 12 13 235 138 496 277
371 197 480 251 500 247 14 -3 240 -120 501 -260 342 -183 478 -261 487 -278
8 -14 13 -65 13 -124 0 -122 11 -145 69 -145 67 0 76 21 76 169 0 143 -14 185
-79 238 -20 15 -218 125 -440 243 l-405 215 -1 547 c0 525 -1 549 -20 602 -26
69 -83 134 -151 171 l-54 30 -300 5 -300 5 -5 142 c-5 137 -6 143 -35 184 -16
23 -50 53 -74 66 l-44 23 -406 0 c-340 -1 -412 -3 -441 -16z m834 -150 c13
-12 16 -40 16 -135 l0 -119 -412 2 -413 3 -3 109 c-2 85 1 114 13 132 l15 24
385 0 c335 0 386 -2 399 -16z m774 -432 c18 -13 41 -41 52 -62 19 -38 20 -61
20 -532 l0 -493 -80 0 -79 0 -3 427 c-3 413 -4 427 -24 455 -11 15 -36 36 -55
45 -32 17 -100 18 -999 18 -1076 0 -1008 4 -1057 -69 l-23 -34 0 -1924 c0
-2101 -4 -1955 56 -2002 27 -21 32 -21 732 -21 642 0 707 1 724 17 26 23 24
84 -3 109 -20 18 -48 19 -690 22 l-669 3 0 1549 0 1550 245 0 c232 0 246 1
265 20 30 30 27 83 -6 109 -25 20 -39 21 -265 21 l-239 0 0 250 0 250 930 0
930 0 0 -250 0 -250 -534 0 c-524 0 -534 0 -560 -21 -33 -26 -36 -79 -6 -109
20 -20 33 -20 560 -20 l541 0 -3 -117 -3 -118 -415 -221 c-445 -238 -478 -261
-500 -345 -8 -30 -10 -160 -7 -448 5 -440 7 -461 67 -643 71 -213 201 -406
372 -555 39 -34 165 -124 279 -200 l208 -138 1 -156 0 -157 -114 -3 c-132 -5
-156 -16 -156 -77 0 -66 14 -72 179 -72 222 0 241 19 241 237 l0 128 80 0 80
0 0 -202 c0 -214 -4 -240 -48 -287 -55 -59 5 -56 -1194 -56 -1062 0 -1105 1
-1145 19 -26 12 -52 35 -70 62 l-28 43 -3 2054 c-1 1363 1 2067 8 2092 12 45
43 86 84 111 30 18 68 19 1161 17 l1130 -3 33 -23z"/>
<path d="M3074 2690 c-11 -4 -33 -22 -47 -40 -27 -31 -27 -34 -27 -176 l0
-144 -132 0 c-147 0 -184 -10 -222 -63 -19 -26 -21 -42 -21 -201 0 -147 3
-176 18 -199 35 -55 59 -62 214 -65 l143 -4 0 -143 c0 -129 2 -145 21 -169 39
-50 65 -56 234 -56 248 0 265 14 265 231 l0 137 143 4 c155 4 177 10 207 61
18 28 20 51 20 202 0 183 -5 203 -53 239 -25 19 -45 21 -173 24 l-144 3 0 137
c0 118 -3 141 -20 169 -34 56 -60 63 -242 62 -90 0 -172 -4 -184 -9z m296
-299 c0 -145 2 -161 21 -185 l20 -26 165 0 164 0 0 -115 0 -115 -165 0 c-217
0 -205 13 -205 -207 l0 -163 -110 0 -110 0 0 159 c0 221 11 210 -208 213
l-167 3 0 110 0 110 167 5 c143 4 170 8 185 23 16 15 18 40 21 182 l3 165 110
0 109 0 0 -159z"/>
</g>
</svg>
