<?xml version="1.0" standalone="no"?>
<!DOCTYPE svg PUBLIC "-//W3C//DTD SVG 20010904//EN"
 "http://www.w3.org/TR/2001/REC-SVG-20010904/DTD/svg10.dtd">
<svg version="1.0" xmlns="http://www.w3.org/2000/svg"
 width="512.000000pt" height="512.000000pt" viewBox="0 0 512.000000 512.000000"
 preserveAspectRatio="xMidYMid meet">

<g transform="translate(0.000000,512.000000) scale(0.100000,-0.100000)"
fill="#000000" stroke="none">
<path d="M4762 4867 l-252 -252 -155 155 -155 155 -203 -203 -203 -203 -320
15 -319 15 -438 -437 -437 -437 697 -697 698 -698 165 165 165 165 -53 52 -52
53 -113 -113 -112 -112 -593 593 -592 592 359 359 360 360 273 -12 273 -12
307 -308 308 -307 12 -273 12 -273 -194 -194 -195 -195 53 -52 52 -53 219 220
220 220 -16 319 -15 319 203 203 204 204 -155 155 -155 155 253 253 252 252
-53 53 -52 52 -253 -253z m-302 -412 l255 -255 -48 -47 -47 -48 -257 257 -258
258 45 45 c24 25 47 45 50 45 3 0 120 -115 260 -255z m-200 -200 l255 -255
-45 -45 -45 -45 -257 257 -258 258 42 42 c23 24 45 43 48 43 3 0 120 -115 260
-255z"/>
<path d="M2040 3098 l-95 -19 -187 -187 -188 -187 -65 65 -65 65 -140 -140
-140 -140 52 -52 52 -53 88 87 88 88 593 -593 592 -592 -360 -360 -361 -361
-271 12 -272 12 -309 311 -310 311 -12 269 -11 269 220 221 221 221 -53 53
-52 52 -244 -244 -244 -244 14 -321 14 -321 -202 -203 -203 -202 155 -155 155
-155 -250 -250 -250 -250 52 -52 53 -53 250 250 250 250 155 -155 155 -155
205 203 205 203 319 -14 318 -15 436 436 437 437 -65 65 -65 65 187 188 187
187 22 113 22 114 -90 90 -90 90 -114 -22 -114 -23 -188 -186 -187 -186 -202
203 -203 202 186 187 186 188 23 114 22 114 -88 88 c-57 57 -96 89 -109 88
-11 -1 -63 -10 -115 -21z m118 -171 c32 -33 32 -34 22 -88 -11 -52 -16 -59
-183 -222 l-172 -167 -75 75 -75 75 169 169 c174 174 182 180 272 190 5 0 25
-14 42 -32z m770 -770 c32 -33 32 -33 21 -89 -11 -54 -16 -60 -180 -224 l-169
-169 -77 78 -78 77 166 166 c148 148 172 168 215 180 68 18 66 18 102 -19z
m-1978 -1212 l255 -255 -45 -45 -45 -45 -257 257 -258 258 42 42 c23 24 45 43
48 43 3 0 120 -115 260 -255z m-200 -200 l254 -255 -39 -40 c-21 -22 -44 -40
-49 -40 -14 0 -506 491 -506 505 0 10 70 85 80 85 3 0 120 -115 260 -255z"/>
<path d="M2262 1437 l-52 -53 53 -52 53 -52 52 53 52 53 -53 52 -53 52 -52
-53z"/>
<path d="M2050 1225 l-55 -55 53 -52 52 -53 55 55 55 55 -53 53 -53 52 -54
-55z"/>
<path d="M1845 1020 l-40 -40 -175 9 c-96 5 -178 7 -182 4 -5 -2 -8 -35 -8
-73 l0 -68 58 -6 c31 -3 127 -8 212 -11 l155 -6 65 65 64 66 -49 50 c-27 27
-52 50 -55 50 -3 0 -23 -18 -45 -40z"/>
</g>
</svg>
