<?xml version="1.0" standalone="no"?>
<!DOCTYPE svg PUBLIC "-//W3C//DTD SVG 20010904//EN"
 "http://www.w3.org/TR/2001/REC-SVG-20010904/DTD/svg10.dtd">
<svg version="1.0" xmlns="http://www.w3.org/2000/svg"
 width="512.000000pt" height="512.000000pt" viewBox="0 0 512.000000 512.000000"
 preserveAspectRatio="xMidYMid meet">

<g transform="translate(0.000000,512.000000) scale(0.100000,-0.100000)"
fill="#000000" stroke="none">
<path d="M795 5079 l-26 -32 3 -223 c3 -219 3 -223 27 -248 l24 -26 311 -2
311 -3 5 -570 c5 -545 7 -573 27 -647 93 -331 280 -568 573 -727 l75 -40 -40
-17 c-132 -54 -339 -231 -436 -371 -66 -96 -132 -235 -166 -353 l-27 -95 -5
-575 -6 -575 -311 -3 -311 -2 -24 -26 c-24 -25 -24 -29 -27 -248 l-3 -223 26
-32 27 -31 1738 0 1738 0 27 31 26 32 -3 223 c-3 219 -3 223 -27 248 l-24 26
-311 2 -311 3 -6 575 -5 575 -27 94 c-56 192 -147 350 -285 493 -86 89 -236
200 -317 234 l-39 16 70 37 c287 151 484 400 577 729 20 74 22 102 27 647 l5
570 312 5 c309 5 313 5 335 28 22 22 23 29 26 246 l3 223 -26 32 -27 31 -1738
0 -1738 0 -27 -31z m3375 -244 l0 -105 -1610 0 -1610 0 0 105 0 105 1610 0
1610 0 0 -105z m-672 -717 l2 -428 -940 0 -940 0 0 423 c0 233 3 427 7 430 3
4 425 6 937 5 l931 -3 3 -427z m-8 -623 c0 -43 -35 -179 -65 -253 -205 -507
-798 -732 -1285 -487 -246 124 -438 375 -494 647 -9 42 -16 84 -16 93 0 13 99
15 930 15 831 0 930 -2 930 -15z m-742 -1041 c315 -64 586 -304 694 -614 49
-140 50 -160 55 -657 3 -260 1 -473 -4 -473 -4 0 -206 162 -448 360 -242 198
-450 363 -463 366 -12 3 -32 3 -45 0 -12 -3 -220 -168 -462 -366 -241 -198
-443 -360 -447 -360 -12 0 -10 806 3 917 45 406 345 744 734 826 95 21 286 21
383 1z m207 -1541 l389 -318 -392 -3 c-216 -1 -568 -1 -783 0 l-392 3 389 318
c213 174 391 317 394 317 3 0 181 -143 395 -317z m1215 -628 l0 -105 -1610 0
-1610 0 0 105 0 105 1610 0 1610 0 0 -105z"/>
<path d="M2499 2231 l-29 -29 0 -172 c0 -191 7 -220 60 -238 21 -8 39 -8 60 0
53 18 60 47 60 238 l0 172 -29 29 c-20 20 -39 29 -61 29 -22 0 -41 -9 -61 -29z"/>
</g>
</svg>
