<?xml version="1.0" standalone="no"?>
<!DOCTYPE svg PUBLIC "-//W3C//DTD SVG 20010904//EN"
 "http://www.w3.org/TR/2001/REC-SVG-20010904/DTD/svg10.dtd">
<svg version="1.0" xmlns="http://www.w3.org/2000/svg"
 width="512.000000pt" height="512.000000pt" viewBox="0 0 512.000000 512.000000"
 preserveAspectRatio="xMidYMid meet">

<g transform="translate(0.000000,512.000000) scale(0.100000,-0.100000)"
fill="#000000" stroke="none">
<path d="M2507 4649 c-66 -10 -125 -41 -174 -91 -31 -33 -276 -476 -1004
-1818 -529 -976 -973 -1800 -988 -1830 -36 -78 -35 -182 3 -261 31 -66 97
-132 164 -162 l47 -22 1974 -3 c2173 -3 2043 -6 2136 58 90 62 137 154 137
266 0 56 -5 84 -24 126 -14 29 -458 852 -987 1828 -890 1643 -966 1779 -1016
1826 -74 71 -165 99 -268 83z m120 -168 c25 -12 51 -34 66 -58 34 -53 1904
-3506 1935 -3571 18 -41 22 -62 17 -90 -10 -56 -41 -98 -89 -121 l-42 -21
-1945 0 c-1283 0 -1956 4 -1981 10 -49 14 -104 76 -113 129 -5 32 -2 52 18 93
29 65 1900 3518 1934 3571 26 41 88 77 133 77 14 0 44 -9 67 -19z"/>
<path d="M2312 3267 c-45 -17 -99 -62 -118 -100 -21 -40 -294 -1003 -294
-1037 0 -85 76 -187 155 -209 22 -6 106 -11 188 -11 98 0 147 -4 147 -11 0 -6
-52 -187 -116 -402 -121 -413 -123 -421 -84 -485 44 -72 152 -96 220 -50 41
28 785 1172 801 1233 19 68 -9 163 -63 211 -50 47 -88 57 -224 63 l-131 6 84
275 c70 228 83 284 80 327 -5 76 -48 139 -116 175 l-53 28 -222 -1 c-143 0
-232 -5 -254 -12z m470 -164 c10 -9 18 -24 18 -35 0 -10 -45 -167 -100 -350
-89 -295 -99 -335 -89 -360 6 -16 20 -33 30 -38 10 -6 96 -10 193 -10 170 0
176 -1 203 -24 24 -21 26 -28 18 -51 -10 -28 -718 -1125 -723 -1120 -1 1 54
193 123 427 69 233 125 437 125 452 0 15 -11 37 -25 51 -24 25 -24 25 -240 25
-202 0 -216 1 -235 20 -11 11 -20 25 -20 32 0 10 234 847 261 936 20 62 21 62
241 62 173 0 204 -2 220 -17z"/>
</g>
</svg>
